<?xml version="1.0" encoding="UTF-8"?>
<svg xmlns="http://www.w3.org/2000/svg" viewBox="0 0 235 100" width="235" height="100">
    <defs>
        <linearGradient id="dieFade1" x1="138.112" y1="0" x2="204.32" y2="0" gradientUnits="userSpaceOnUse">
            <stop offset="0%" stop-color="#1C1C1E" stop-opacity="1"/><stop offset="40%" stop-color="#1C1C1E" stop-opacity="0.70"/><stop offset="100%" stop-color="#1C1C1E" stop-opacity="0.40"/>
        </linearGradient>
    </defs>
    <path fill="#1C1C1E" d="M37.39 65L30.86 65L39.70 31.40L50.74 31.40L59.57 65L53.04 65L51.22 57.61L39.22 57.61L37.39 65ZM44.78 35.38L40.70 51.75L49.73 51.75L45.65 35.38L44.78 35.38ZM68.94 65L62.60 65L62.60 31.40L68.94 31.40L68.94 65Z"/>
    <path fill="#1C1C1E" d="M94.76 65.67Q91.21 65.67 88.38 64.23Q85.54 62.79 83.91 60.06Q82.28 57.32 82.28 53.48L82.28 52.71Q82.28 48.87 83.91 46.14Q85.54 43.40 88.38 41.96Q91.21 40.52 94.76 40.52Q98.31 40.52 101.14 41.96Q103.98 43.40 105.61 46.14Q107.24 48.87 107.24 52.71L107.24 53.48Q107.24 57.32 105.61 60.06Q103.98 62.79 101.14 64.23Q98.31 65.67 94.76 65.67ZM94.76 60.30Q97.54 60.30 99.37 58.50Q101.19 56.70 101.19 53.34L101.19 52.86Q101.19 49.50 99.39 47.70Q97.59 45.90 94.76 45.90Q91.98 45.90 90.15 47.70Q88.33 49.50 88.33 52.86L88.33 53.34Q88.33 56.70 90.15 58.50Q91.98 60.30 94.76 60.30ZM117.86 65L111.81 65L111.81 41.19L117.76 41.19L117.76 43.88L118.62 43.88Q119.15 42.44 120.38 41.77Q121.60 41.10 123.23 41.10L126.11 41.10L126.11 46.47L123.14 46.47Q120.83 46.47 119.34 47.70Q117.86 48.92 117.86 51.46L117.86 65Z"/>
    <rect x="80.1" y="72" width="43.8" height="3" fill="#FF4C00" rx="1.5"/>
    <path fill="url(#dieFade1)" d="M151.94 65L138.11 65L138.11 59.43L142.53 59.43L142.53 36.97L138.11 36.97L138.11 31.40L151.94 31.40Q158.70 31.40 162.23 34.83Q165.76 38.26 165.76 45.03L165.76 51.37Q165.76 58.14 162.23 61.57Q158.70 65 151.94 65ZM148.86 37.16L148.86 59.24L152.03 59.24Q155.87 59.24 157.65 57.22Q159.42 55.21 159.42 51.56L159.42 44.84Q159.42 41.14 157.65 39.15Q155.87 37.16 152.03 37.16L148.86 37.16ZM176.28 65L170.23 65L170.23 41.19L176.28 41.19L176.28 65ZM173.26 38.41Q171.62 38.41 170.50 37.35Q169.37 36.30 169.37 34.57Q169.37 32.84 170.50 31.78Q171.62 30.73 173.26 30.73Q174.94 30.73 176.04 31.78Q177.14 32.84 177.14 34.57Q177.14 36.30 176.04 37.35Q174.94 38.41 173.26 38.41ZM192.85 65.67Q189.30 65.67 186.58 64.16Q183.87 62.65 182.36 59.89Q180.85 57.13 180.85 53.38L180.85 52.81Q180.85 49.06 182.34 46.30Q183.82 43.54 186.51 42.03Q189.20 40.52 192.75 40.52Q196.26 40.52 198.85 42.08Q201.44 43.64 202.88 46.40Q204.32 49.16 204.32 52.81L204.32 54.87L186.99 54.87Q187.09 57.32 188.82 58.86Q190.54 60.39 193.04 60.39Q195.58 60.39 196.78 59.29Q197.98 58.18 198.61 56.84L203.55 59.43Q202.88 60.68 201.61 62.14Q200.34 63.61 198.22 64.64Q196.11 65.67 192.85 65.67ZM187.04 50.36L198.18 50.36Q197.98 48.30 196.52 47.05Q195.06 45.80 192.70 45.80Q190.26 45.80 188.82 47.05Q187.38 48.30 187.04 50.36Z"/>
</svg>